<svg width="3190" height="2275" viewBox="0 0 3190 2275" fill="none" xmlns="http://www.w3.org/2000/svg">
<g id="bg-paths">
<path id="path7" d="M1594 1.5C1803.19 1.49999 2010.32 30.9031 2203.57 88.0255C2396.82 145.148 2572.39 228.867 2720.26 334.387C2868.12 439.907 2985.38 565.151 3065.37 702.951C3145.35 840.746 3186.5 988.404 3186.5 1137.5" stroke="black" stroke-width="3"/>
<path id="path6" d="M2014.5 1.5C2168.42 1.49999 2320.82 30.886 2463.02 87.979C2605.22 145.072 2734.42 228.753 2843.25 334.243C2952.07 439.733 3038.4 564.964 3097.29 702.787C3156.19 840.609 3186.5 988.325 3186.5 1137.5" stroke="black" stroke-width="3"/>
<path id="path5" d="M2348.5 1.5C2458.47 1.49999 2567.39 30.8485 2669.03 87.8951C2770.67 144.944 2863.06 228.58 2940.91 334.057C3018.75 439.534 3080.52 564.775 3122.66 702.636C3164.81 840.497 3186.5 988.265 3186.5 1137.5" stroke="black" stroke-width="3"/>
<path id="path4" d="M2627 1.5C2700.25 1.49999 2772.87 30.7491 2840.72 87.7356C2908.58 144.731 2970.31 228.332 3022.34 333.829C3074.37 439.321 3115.65 564.592 3143.83 702.498C3172 840.401 3186.5 988.216 3186.5 1137.5" stroke="black" stroke-width="3"/>
<path id="path3" d="M2818.5 1.5C2866.37 1.49999 2914.03 30.525 2958.72 87.5127C3003.4 144.486 3044.07 228.091 3078.35 333.629C3112.63 439.152 3139.83 564.458 3158.39 702.398C3176.95 840.335 3186.5 988.183 3186.5 1137.5" stroke="black" stroke-width="3"/>
<path id="path2" d="M2988 1.5C3000.53 1.5 3013.22 8.51319 3025.89 22.8502C3038.56 37.1803 3051.05 58.6623 3063.16 87.1731C3087.36 144.184 3109.38 227.843 3127.94 333.426C3146.5 438.991 3161.23 564.336 3171.28 702.307C3181.33 840.275 3186.5 988.155 3186.5 1137.5" stroke="black" stroke-width="3"/>
<path id="path1" d="M3188 0V2218" stroke="black" stroke-width="3"/>
</g>
</svg>
